<svg width="30" height="30" viewBox="0 0 30 30" fill="none" xmlns="http://www.w3.org/2000/svg">
<path d="M15 0C6.74183 0 0 6.74183 0 15C0 23.2582 6.74183 30 15 30C23.2582 30 30 23.2582 30 15C30 6.74183 23.2582 0 15 0ZM15 27.6061C8.0585 27.6061 2.39388 21.9411 2.39388 15C2.39388 8.0585 8.05885 2.39388 15 2.39388C21.9415 2.39388 27.6061 8.05885 27.6061 15C27.6061 21.9415 21.9414 27.6061 15 27.6061Z" fill="white"/>
<path d="M20.6325 9.36727C20.1428 8.87758 19.3671 8.87758 18.9182 9.36727L14.9999 13.2856L11.0816 9.36727C10.5919 8.87758 9.81621 8.87758 9.36727 9.36727C8.87758 9.85696 8.87758 10.6327 9.36727 11.0816L13.2856 14.9999L9.36727 18.9182C8.87758 19.4079 8.87758 20.1836 9.36727 20.6325C9.61225 20.8775 9.93871 21 10.2244 21C10.5102 21 10.8366 20.8775 11.0816 20.6325L14.9999 16.7142L18.9182 20.6325C19.1632 20.8775 19.4896 21 19.7754 21C20.0611 21 20.3875 20.8775 20.6325 20.6325C21.1222 20.1428 21.1222 19.3671 20.6325 18.9182L16.7142 14.9999L20.6325 11.0816C21.1225 10.5916 21.1225 9.85692 20.6325 9.36727Z" fill="white"/>
</svg>
