<svg width="36" height="22" viewBox="0 0 36 22" fill="none" xmlns="http://www.w3.org/2000/svg">
<path d="M35.4229 10.6095C35.4193 9.98057 35.0822 9.40057 34.5375 9.08631L20.5007 0.309871L20.3678 0.2479C20.0995 0.0886685 19.7941 0.0032717 19.4821 1.52588e-05C19.0125 1.52588e-05 18.5621 0.18652 18.23 0.518616C17.8976 0.850712 17.7111 1.30138 17.7111 1.77109V19.4826C17.7111 19.9526 17.8976 20.403 18.23 20.7351C18.5621 21.0672 19.0125 21.254 19.4821 21.254C19.7941 21.2507 20.0995 21.165 20.3678 21.0058H20.4829L34.5372 12.1413C35.0845 11.8252 35.4219 11.2414 35.4226 10.6092L35.4229 10.6095Z" fill="white"/>
<path d="M17.7114 10.6095C17.7075 9.98057 17.3704 9.40057 16.8257 9.08631L2.78961 0.309871L2.65677 0.2479C2.38842 0.0886685 2.08301 0.0032717 1.77108 1.52588e-05C1.3014 1.52588e-05 0.850697 0.18652 0.518601 0.518616C0.186505 0.850712 0 1.30138 0 1.77109V19.4826C0 19.9526 0.186505 20.403 0.518601 20.7351C0.850697 21.0672 1.30136 21.254 1.77108 21.254C2.08301 21.2507 2.38842 21.165 2.65677 21.0058H2.77181L16.8261 12.1413C17.3738 11.8252 17.7112 11.2414 17.7118 10.6092L17.7114 10.6095Z" fill="white"/>
</svg>
