<svg width="45" height="45" viewBox="0 0 45 45" fill="none" xmlns="http://www.w3.org/2000/svg">
<g id="Like">
<rect id="Rectangle 4" width="45" height="45" rx="10" fill="#0F0F0F"/>
<g id="Icon">
<path id="Vector" d="M31.8141 18.9225C30.5773 18.8418 29.4481 18.8957 27.9696 19.0299C27.3513 19.0838 27.1091 18.2233 27.2436 16.9061C27.4319 14.6207 27.7006 13.0078 27.8889 11.6903C28.2653 9.32436 24.9046 8.92113 24.1787 10.7492C23.4797 12.4967 21.544 18.6804 17.8068 20.4011C17.3766 20.5894 17.1079 21.0464 17.1079 21.5303C17.1079 23.5467 17.1079 28.5474 17.0811 30.6444C17.0811 31.2091 17.4574 31.693 17.9951 31.8542C20.0922 32.4189 25.3079 33.7361 28.9912 33.7361C31.384 33.7361 32.7821 33.5479 33.293 31.3166C33.8307 28.9776 34.5028 25.5362 35.0137 22.8745C35.5511 20.0249 34.3143 19.0838 31.8141 18.9226L31.8141 18.9225Z" fill="white"/>
<path id="Vector_2" d="M15.172 19.8366H10.1982C9.87566 19.8366 9.60675 20.1055 9.60675 20.4281V32.1232C9.60675 32.4458 9.87568 32.7147 10.1982 32.7147H15.172C15.4946 32.7147 15.7635 32.4457 15.7635 32.1232V20.4281C15.7635 20.1053 15.4946 19.8366 15.172 19.8366ZM12.6716 30.8058C12.0533 30.8058 11.5692 30.322 11.5692 29.7035C11.5692 29.0852 12.0531 28.6011 12.6716 28.6011C13.2899 28.6011 13.7739 29.085 13.7739 29.7035C13.7739 30.322 13.2901 30.8058 12.6716 30.8058Z" fill="white"/>
</g>
</g>
</svg>
