<svg width="41" height="41" viewBox="0 0 41 41" fill="none" xmlns="http://www.w3.org/2000/svg">
<path fill-rule="evenodd" clip-rule="evenodd" d="M0 20.4749C0 9.15585 9.15583 1.52588e-05 20.4749 1.52588e-05C31.7939 1.52588e-05 41 9.15585 41 20.4749C41 31.794 31.7939 41 20.4749 41C9.15583 41 0 31.794 0 20.4749ZM22.0347 27.0147V13.9852C22.0347 12.5264 23.242 11.3188 24.7011 11.3188C26.2104 11.3188 27.4177 12.5261 27.4177 13.9852V27.0147C27.4177 28.4735 26.2104 29.6811 24.7011 29.6811C23.2423 29.6811 22.0347 28.4738 22.0347 27.0147ZM13.5835 27.0147V13.9852C13.5835 12.5264 14.7908 11.3188 16.2499 11.3188C17.7592 11.3188 18.9665 12.5261 18.9665 13.9852V27.0147C18.9665 28.4735 17.7592 29.6811 16.2499 29.6811C14.7911 29.6811 13.5835 28.4738 13.5835 27.0147Z" fill="white"/>
</svg>
